<?xml version="1.0" standalone="no"?>
<!DOCTYPE svg PUBLIC "-//W3C//DTD SVG 20010904//EN"
 "http://www.w3.org/TR/2001/REC-SVG-20010904/DTD/svg10.dtd">
<svg version="1.0" xmlns="http://www.w3.org/2000/svg"
 width="48.000000pt" height="48.000000pt" viewBox="0 0 48.000000 48.000000"
 preserveAspectRatio="xMidYMid meet">

<g transform="translate(0.000000,48.000000) scale(0.100000,-0.100000)"
fill="#000000" stroke="none">
<path d="M183 375 c-44 -39 -57 -45 -95 -45 -24 0 -49 -5 -56 -12 -7 -7 -12
-40 -12 -80 0 -76 10 -88 75 -88 30 0 47 -9 88 -45 80 -73 82 -69 82 135 0
204 -2 208 -82 135z m55 -206 l-3 -71 -47 41 c-40 35 -52 41 -92 41 l-46 0 0
60 0 60 46 0 c40 0 52 6 92 41 l47 41 3 -71 c2 -39 2 -103 0 -142z"/>
<path d="M390 393 c0 -5 9 -32 20 -61 25 -66 25 -118 0 -184 -23 -60 -24 -68
-10 -68 5 0 20 19 32 42 18 34 23 60 23 118 0 58 -5 84 -23 118 -20 37 -42 56
-42 35z"/>
<path d="M347 354 c-3 -3 1 -24 9 -46 18 -51 18 -85 0 -136 -10 -29 -12 -44
-4 -48 13 -8 25 10 39 61 20 72 -13 200 -44 169z"/>
<path d="M304 240 c0 -71 7 -85 26 -51 19 37 6 121 -18 121 -4 0 -8 -31 -8
-70z"/>
</g>
</svg>
