<?xml version="1.0" encoding="UTF-8"?>
<!DOCTYPE svg PUBLIC "-//W3C//DTD SVG 1.1//EN" "http://www.w3.org/Graphics/SVG/1.1/DTD/svg11.dtd">
<svg xmlns="http://www.w3.org/2000/svg" version="1.1" width="325px" height="325px" style="shape-rendering:geometricPrecision; text-rendering:geometricPrecision; image-rendering:optimizeQuality; fill-rule:evenodd; clip-rule:evenodd" xmlns:xlink="http://www.w3.org/1999/xlink">
<g><path style="opacity:0.994" fill="#1877f2" d="M 143.5,-0.5 C 155.833,-0.5 168.167,-0.5 180.5,-0.5C 250.363,10.8701 296.529,50.2034 319,117.5C 321.179,126.237 323.012,134.903 324.5,143.5C 324.5,155.833 324.5,168.167 324.5,180.5C 316.782,233.784 290.115,274.618 244.5,303C 226.576,312.918 207.576,319.752 187.5,323.5C 187.5,285.5 187.5,247.5 187.5,209.5C 200.167,209.5 212.833,209.5 225.5,209.5C 227.67,193.474 230.003,177.474 232.5,161.5C 217.5,161.5 202.5,161.5 187.5,161.5C 187.333,149.162 187.5,136.829 188,124.5C 190.5,115.333 196.333,109.5 205.5,107C 215.161,106.5 224.828,106.334 234.5,106.5C 234.5,92.8333 234.5,79.1667 234.5,65.5C 225.489,64.8508 216.489,64.0175 207.5,63C 189.265,60.7259 172.599,64.7259 157.5,75C 147.3,83.5591 140.8,94.3924 138,107.5C 136.6,125.463 136.1,143.463 136.5,161.5C 122.833,161.5 109.167,161.5 95.5,161.5C 95.5,177.5 95.5,193.5 95.5,209.5C 109.167,209.5 122.833,209.5 136.5,209.5C 136.5,247.5 136.5,285.5 136.5,323.5C 69.9122,310.079 26.0788,271.079 5,206.5C 2.82092,197.763 0.98759,189.097 -0.5,180.5C -0.5,168.167 -0.5,155.833 -0.5,143.5C 10.1511,76.6727 47.1511,31.1727 110.5,7C 121.477,3.77499 132.477,1.27499 143.5,-0.5 Z"/></g>
<g><path style="opacity:0.999" fill="#fdfefe" d="M 187.5,323.5 C 184.941,323.198 182.607,323.532 180.5,324.5C 168.167,324.5 155.833,324.5 143.5,324.5C 141.393,323.532 139.059,323.198 136.5,323.5C 136.5,285.5 136.5,247.5 136.5,209.5C 122.833,209.5 109.167,209.5 95.5,209.5C 95.5,193.5 95.5,177.5 95.5,161.5C 109.167,161.5 122.833,161.5 136.5,161.5C 136.1,143.463 136.6,125.463 138,107.5C 140.8,94.3924 147.3,83.5591 157.5,75C 172.599,64.7259 189.265,60.7259 207.5,63C 216.489,64.0175 225.489,64.8508 234.5,65.5C 234.5,79.1667 234.5,92.8333 234.5,106.5C 224.828,106.334 215.161,106.5 205.5,107C 196.333,109.5 190.5,115.333 188,124.5C 187.5,136.829 187.333,149.162 187.5,161.5C 202.5,161.5 217.5,161.5 232.5,161.5C 230.003,177.474 227.67,193.474 225.5,209.5C 212.833,209.5 200.167,209.5 187.5,209.5C 187.5,247.5 187.5,285.5 187.5,323.5 Z"/></g>
</svg>
