<?xml version="1.0" encoding="UTF-8"?>
<!DOCTYPE svg PUBLIC "-//W3C//DTD SVG 1.1//EN" "http://www.w3.org/Graphics/SVG/1.1/DTD/svg11.dtd">
<svg xmlns="http://www.w3.org/2000/svg" version="1.1" width="753px" height="768px" style="shape-rendering:geometricPrecision; text-rendering:geometricPrecision; image-rendering:optimizeQuality; fill-rule:evenodd; clip-rule:evenodd" xmlns:xlink="http://www.w3.org/1999/xlink">
<g><path style="opacity:0.995" fill="#ea4234" d="M 355.5,-0.5 C 374.5,-0.5 393.5,-0.5 412.5,-0.5C 499.904,6.44893 575.737,39.4489 640,98.5C 640.667,99.5 640.667,100.5 640,101.5C 603.653,138.014 567.153,174.347 530.5,210.5C 483.01,167.058 427.01,148.225 362.5,154C 286.628,164 228.795,201.5 189,266.5C 181.282,280.852 174.449,295.518 168.5,310.5C 125.833,277.5 83.1667,244.5 40.5,211.5C 87.6046,119.237 159.938,55.4039 257.5,20C 289.511,9.36569 322.178,2.53236 355.5,-0.5 Z"/></g>
<g><path style="opacity:0.996" fill="#fabb05" d="M 40.5,211.5 C 83.1667,244.5 125.833,277.5 168.5,310.5C 157.516,344.456 154.35,379.122 159,414.5C 161.226,428.735 164.393,442.735 168.5,456.5C 125.833,489.5 83.1667,522.5 40.5,555.5C 17.0262,509.938 3.35955,461.605 -0.5,410.5C -0.5,392.5 -0.5,374.5 -0.5,356.5C 3.35955,305.395 17.0262,257.062 40.5,211.5 Z"/></g>
<g><path style="opacity:0.997" fill="#4285f3" d="M 752.5,369.5 C 752.5,384.833 752.5,400.167 752.5,415.5C 749.017,491.783 725.85,561.45 683,624.5C 669.452,642.885 654.285,659.885 637.5,675.5C 636.375,673.871 635.041,672.371 633.5,671C 593.028,640.352 553.028,609.185 513.5,577.5C 553.453,549.494 578.786,511.494 589.5,463.5C 520.503,462.5 451.503,462.167 382.5,462.5C 382.5,412.833 382.5,363.167 382.5,313.5C 503.502,313.167 624.502,313.5 745.5,314.5C 748.795,332.845 751.129,351.178 752.5,369.5 Z"/></g>
<g><path style="opacity:0.997" fill="#34a853" d="M 168.5,456.5 C 194.159,527.66 242.492,576.493 313.5,603C 384.076,624.012 450.743,615.512 513.5,577.5C 553.028,609.185 593.028,640.352 633.5,671C 635.041,672.371 636.375,673.871 637.5,675.5C 591.727,716.891 538.394,744.391 477.5,758C 456.207,762.446 434.874,765.613 413.5,767.5C 394.167,767.5 374.833,767.5 355.5,767.5C 228.395,754.559 129.561,695.225 59,589.5C 52.0462,578.592 45.8796,567.259 40.5,555.5C 83.1667,522.5 125.833,489.5 168.5,456.5 Z"/></g>
</svg>
