<?xml version="1.0" encoding="UTF-8"?>
<!DOCTYPE svg PUBLIC "-//W3C//DTD SVG 1.1//EN" "http://www.w3.org/Graphics/SVG/1.1/DTD/svg11.dtd">
<svg xmlns="http://www.w3.org/2000/svg" version="1.1" width="88px" height="60px" style="shape-rendering:geometricPrecision; text-rendering:geometricPrecision; image-rendering:optimizeQuality; fill-rule:evenodd; clip-rule:evenodd" xmlns:xlink="http://www.w3.org/1999/xlink">
<g><path style="opacity:0.999" fill="#7336c0" d="M 71.5,26.5 C 71.5,27.5 71.5,28.5 71.5,29.5C 73.1667,29.5 74.8333,29.5 76.5,29.5C 77.4959,29.4142 78.3292,29.7476 79,30.5C 79.6098,33.0216 80.9431,35.0216 83,36.5C 83.4935,38.1341 83.6602,39.8008 83.5,41.5C 80.1016,41.8204 76.7683,41.487 73.5,40.5C 74.1667,39.5 74.8333,38.5 75.5,37.5C 72.3837,36.8156 69.3837,35.8156 66.5,34.5C 66.1667,34.6667 65.8333,34.8333 65.5,35C 67.3939,36.1011 68.0606,37.4345 67.5,39C 63.4179,40.2931 60.2513,39.1265 58,35.5C 56.3064,41.5775 52.8064,42.9108 47.5,39.5C 43.4376,42.5542 40.1043,41.8875 37.5,37.5C 40.1903,35.3553 41.6903,32.6887 42,29.5C 36.6291,32.3279 31.4624,31.9946 26.5,28.5C 26.1667,28.6667 25.8333,28.8333 25.5,29C 27.3392,32.0044 29.6726,34.5044 32.5,36.5C 28.8709,40.411 25.3709,40.0777 22,35.5C 20.8668,37.2112 19.3668,37.7112 17.5,37C 16.8448,35.5134 15.8448,34.3467 14.5,33.5C 11.138,34.9672 7.97137,34.6338 5,32.5C 4.50999,31.2068 4.34332,29.8734 4.5,28.5C 5.16667,25.8333 6.83333,24.1667 9.5,23.5C 12.3878,24.0102 14.7211,23.3435 16.5,21.5C 17.3494,18.4939 19.1827,17.4939 22,18.5C 25.6958,6.71089 33.0292,3.71089 44,9.5C 50.6389,6.33163 56.6389,7.33163 62,12.5C 63.0793,15.0627 63.5793,17.7294 63.5,20.5C 68.1097,20.1198 70.7764,22.1198 71.5,26.5 Z"/></g>
<g><path style="opacity:1" fill="#f9f6fc" d="M 29.5,12.5 C 31.1667,12.5 32.8333,12.5 34.5,12.5C 34.0536,16.5729 31.7202,18.5729 27.5,18.5C 27.2525,16.1417 27.9192,14.1417 29.5,12.5 Z"/></g>
<g><path style="opacity:1" fill="#f4effa" d="M 44.5,14.5 C 46.9775,14.0508 48.9775,14.7175 50.5,16.5C 48.1041,19.1662 45.7708,18.9995 43.5,16C 44.056,15.6174 44.3893,15.1174 44.5,14.5 Z"/></g>
<g><path style="opacity:0.535" fill="#3f1f6c" d="M 16.5,21.5 C 14.7211,23.3435 12.3878,24.0102 9.5,23.5C 11.7146,22.7321 14.0479,22.0654 16.5,21.5 Z"/></g>
<g><path style="opacity:0.014" fill="#0a0515" d="M 71.5,26.5 C 73.0389,27.7671 74.7056,28.7671 76.5,29.5C 74.8333,29.5 73.1667,29.5 71.5,29.5C 71.5,28.5 71.5,27.5 71.5,26.5 Z"/></g>
<g><path style="opacity:1" fill="#1c1d8a" d="M 4.5,28.5 C 4.34332,29.8734 4.50999,31.2068 5,32.5C 7.97137,34.6338 11.138,34.9672 14.5,33.5C 15.8448,34.3467 16.8448,35.5134 17.5,37C 19.3668,37.7112 20.8668,37.2112 22,35.5C 25.3709,40.0777 28.8709,40.411 32.5,36.5C 29.6726,34.5044 27.3392,32.0044 25.5,29C 25.8333,28.8333 26.1667,28.6667 26.5,28.5C 31.4624,31.9946 36.6291,32.3279 42,29.5C 41.6903,32.6887 40.1903,35.3553 37.5,37.5C 40.1043,41.8875 43.4376,42.5542 47.5,39.5C 52.8064,42.9108 56.3064,41.5775 58,35.5C 60.2513,39.1265 63.4179,40.2931 67.5,39C 68.0606,37.4345 67.3939,36.1011 65.5,35C 65.8333,34.8333 66.1667,34.6667 66.5,34.5C 69.3837,35.8156 72.3837,36.8156 75.5,37.5C 74.8333,38.5 74.1667,39.5 73.5,40.5C 76.7683,41.487 80.1016,41.8204 83.5,41.5C 81.8993,47.8018 77.8993,50.3018 71.5,49C 68.9999,48.6253 66.6666,47.7919 64.5,46.5C 60.5039,49.884 56.3372,50.2173 52,47.5C 46.6975,53.021 40.5308,54.021 33.5,50.5C 30.6622,52.1015 27.6622,52.6015 24.5,52C 22.393,50.7365 21.393,48.9032 21.5,46.5C 21.719,45.325 21.3857,44.325 20.5,43.5C 19.8933,43.6236 19.56,43.9569 19.5,44.5C 6.87621,46.2113 1.87621,40.878 4.5,28.5 Z"/></g>
<g><path style="opacity:0.243" fill="#0f0926" d="M 19.5,44.5 C 19.56,43.9569 19.8933,43.6236 20.5,43.5C 21.3857,44.325 21.719,45.325 21.5,46.5C 20.8333,45.8333 20.1667,45.1667 19.5,44.5 Z"/></g>
<g><path style="opacity:0.051" fill="#27144e" d="M 69.5,49.5 C 70.8333,50.1667 70.8333,50.1667 69.5,49.5 Z"/></g>
</svg>
