<?xml version="1.0" encoding="UTF-8"?>
<!DOCTYPE svg PUBLIC "-//W3C//DTD SVG 1.1//EN" "http://www.w3.org/Graphics/SVG/1.1/DTD/svg11.dtd">
<svg xmlns="http://www.w3.org/2000/svg" version="1.1" width="850px" height="850px" style="shape-rendering:geometricPrecision; text-rendering:geometricPrecision; image-rendering:optimizeQuality; fill-rule:evenodd; clip-rule:evenodd" xmlns:xlink="http://www.w3.org/1999/xlink">
<g><path style="opacity:1" fill="#f9f9f9" d="M -0.5,-0.5 C 282.833,-0.5 566.167,-0.5 849.5,-0.5C 849.5,282.833 849.5,566.167 849.5,849.5C 566.167,849.5 282.833,849.5 -0.5,849.5C -0.5,566.167 -0.5,282.833 -0.5,-0.5 Z"/></g>
<g><path style="opacity:1" fill="#000000" d="M 467.5,102.5 C 467.5,107.833 467.5,113.167 467.5,118.5C 468.5,118.5 469.5,118.5 470.5,118.5C 499.108,126.573 525.108,139.573 548.5,157.5C 557.239,166.815 566.406,175.815 576,184.5C 576.455,187.757 578.121,190.091 581,191.5C 608.64,228.99 623.14,271.323 624.5,318.5C 625.333,361.163 625.833,403.829 626,446.5C 627.528,456.389 630.361,465.889 634.5,475C 638.374,479.914 641.874,485.081 645,490.5C 663.448,509.071 682.115,527.404 701,545.5C 703.04,548.406 705.207,551.239 707.5,554C 710.979,561.08 712.979,568.58 713.5,576.5C 714.499,592.82 714.833,609.153 714.5,625.5C 521.167,625.5 327.833,625.5 134.5,625.5C 134.167,609.153 134.501,592.82 135.5,576.5C 136.021,568.58 138.021,561.08 141.5,554C 161.883,531.614 183.05,509.78 205,488.5C 207.795,483.744 210.962,479.244 214.5,475C 216.821,468.845 219.155,462.678 221.5,456.5C 222.047,453.174 222.547,449.84 223,446.5C 223.167,402.163 223.667,357.83 224.5,313.5C 224.897,272.265 236.397,234.598 259,200.5C 263.164,195.51 267.331,190.51 271.5,185.5C 272.098,184.205 272.598,182.872 273,181.5C 281.842,172.649 291.009,164.149 300.5,156C 303.223,153.969 306.223,152.302 309.5,151C 311.843,149.333 313.843,147.333 315.5,145C 326.401,139.764 337.067,134.097 347.5,128C 357.901,124.697 368.235,121.53 378.5,118.5C 379.5,118.5 380.5,118.5 381.5,118.5C 381.5,113.167 381.5,107.833 381.5,102.5C 391.048,75.0799 410.382,64.5799 439.5,71C 453.596,77.4185 462.929,87.9185 467.5,102.5 Z"/></g>
<g><path style="opacity:1" fill="#b7b7b7" d="M 381.5,102.5 C 381.5,107.833 381.5,113.167 381.5,118.5C 380.5,118.5 379.5,118.5 378.5,118.5C 380.064,113.272 381.064,107.939 381.5,102.5 Z"/></g>
<g><path style="opacity:1" fill="#b7b7b7" d="M 467.5,102.5 C 467.936,107.939 468.936,113.272 470.5,118.5C 469.5,118.5 468.5,118.5 467.5,118.5C 467.5,113.167 467.5,107.833 467.5,102.5 Z"/></g>
<g><path style="opacity:1" fill="#010101" d="M 335.5,669.5 C 394.833,669.5 454.167,669.5 513.5,669.5C 514.193,686.753 512.527,703.753 508.5,720.5C 506.584,725.62 504.418,730.62 502,735.5C 478.811,771.417 445.645,785.584 402.5,778C 395.566,776.104 388.899,773.604 382.5,770.5C 370.676,762.669 360.176,753.336 351,742.5C 344.538,731.705 340.038,720.038 337.5,707.5C 335.987,694.88 335.32,682.213 335.5,669.5 Z"/></g>
</svg>
