<?xml version="1.0" encoding="UTF-8"?>
<!DOCTYPE svg PUBLIC "-//W3C//DTD SVG 1.1//EN" "http://www.w3.org/Graphics/SVG/1.1/DTD/svg11.dtd">
<svg xmlns="http://www.w3.org/2000/svg" version="1.1" width="400px" height="400px" style="shape-rendering:geometricPrecision; text-rendering:geometricPrecision; image-rendering:optimizeQuality; fill-rule:evenodd; clip-rule:evenodd" xmlns:xlink="http://www.w3.org/1999/xlink">
<g><path style="opacity:1" fill="#f8f9fb" d="M -0.5,-0.5 C 132.833,-0.5 266.167,-0.5 399.5,-0.5C 399.5,132.833 399.5,266.167 399.5,399.5C 376.5,399.5 353.5,399.5 330.5,399.5C 323.109,346.827 295.442,309.327 247.5,287C 190.185,267.787 141.018,280.287 100,324.5C 82.3574,346.457 71.8574,371.457 68.5,399.5C 45.5,399.5 22.5,399.5 -0.5,399.5C -0.5,266.167 -0.5,132.833 -0.5,-0.5 Z"/></g>
<g><path style="opacity:1" fill="#b9bec2" d="M 191.5,88.5 C 233.869,87.5902 260.369,107.59 271,148.5C 277.623,173.095 276.957,197.428 269,221.5C 261.268,237.132 248.768,246.632 231.5,250C 210.159,253.239 188.826,253.239 167.5,250C 139.596,242.758 125.096,224.591 124,195.5C 122.389,169.892 127.055,145.559 138,122.5C 150.355,102.413 168.188,91.0798 191.5,88.5 Z"/></g>
<g><path style="opacity:1" fill="#b9bec2" d="M 330.5,399.5 C 243.167,399.5 155.833,399.5 68.5,399.5C 71.8574,371.457 82.3574,346.457 100,324.5C 141.018,280.287 190.185,267.787 247.5,287C 295.442,309.327 323.109,346.827 330.5,399.5 Z"/></g>
</svg>
